<?xml version="1.0" standalone="no"?>
<!DOCTYPE svg PUBLIC "-//W3C//DTD SVG 20010904//EN"
    "http://www.w3.org/TR/2001/REC-SVG-20010904/DTD/svg10.dtd">
<svg version="1.0" xmlns="http://www.w3.org/2000/svg"
     width="1779.000000pt" height="1779.000000pt" viewBox="0 0 1779.000000 1779.000000"
     preserveAspectRatio="xMidYMid meet">
    <metadata>
        Created by potrace 1.11, written by Peter Selinger 2001-2013
    </metadata>
    <g transform="translate(0.000000,1779.000000) scale(0.100000,-0.100000)"
       fill="#000000" stroke="none">
        <path d="M7725 17389 c-356 -70 -588 -346 -587 -699 0 -130 20 -218 74 -330
55 -114 176 -237 293 -297 256 -131 585 -108 794 57 l53 42 -25 25 -25 25 -53
-42 c-105 -84 -222 -120 -386 -120 -130 0 -198 15 -313 72 -207 101 -340 322
-340 568 0 364 283 640 655 640 151 0 305 -52 401 -134 40 -34 42 -35 58 -17
9 9 16 23 16 29 0 37 -167 137 -280 168 -68 18 -268 27 -335 13z"/>
        <path d="M11292 17390 c-228 -41 -417 -179 -516 -377 -57 -114 -71 -179 -70
-333 0 -118 4 -145 27 -215 71 -215 232 -376 452 -451 74 -26 93 -28 240 -28
140 -1 169 2 235 22 81 25 163 67 223 114 l37 30 0 264 0 264 -35 0 -35 0 0
-250 0 -249 -42 -29 c-115 -79 -224 -106 -403 -99 -139 5 -228 27 -319 81
-140 82 -249 227 -292 386 -23 85 -23 243 -1 330 76 293 329 480 649 480 151
0 286 -43 392 -124 l48 -37 24 22 23 22 -47 39 c-57 48 -166 102 -247 124 -72
19 -269 27 -343 14z"/>
        <path d="M15660 17385 c-289 -62 -485 -246 -555 -521 -25 -98 -24 -265 4 -367
84 -315 358 -517 702 -517 172 0 313 45 430 136 l60 48 -25 24 -24 25 -44 -36
c-114 -94 -243 -131 -428 -124 -147 5 -231 30 -342 104 -367 242 -370 814 -7
1060 234 158 588 148 786 -22 l42 -35 15 22 c21 30 21 33 -15 66 -44 41 -157
100 -237 123 -89 26 -273 34 -362 14z"/>
        <path d="M10 17355 l0 -35 255 0 255 0 0 -670 0 -670 35 0 35 0 0 670 0 670
260 0 260 0 0 35 0 35 -550 0 -550 0 0 -35z"/>
        <path d="M1362 16688 l3 -703 38 -3 37 -3 0 340 0 341 490 0 490 0 0 -340 0
-340 35 0 35 0 0 705 0 705 -35 0 -35 0 -2 -327 -3 -328 -487 -3 -488 -2 0
330 0 330 -40 0 -40 0 2 -702z"/>
        <path d="M3000 16685 l0 -705 475 0 475 0 0 35 0 35 -440 0 -440 0 0 305 0
305 380 0 380 0 0 35 0 35 -380 0 -380 0 0 295 0 295 425 0 425 0 0 35 0 35
-460 0 -460 0 0 -705z"/>
        <path d="M4590 17355 l0 -35 255 0 255 0 2 -667 3 -668 38 -3 37 -3 0 670 0
671 255 0 255 0 0 35 0 35 -550 0 -550 0 0 -35z"/>
        <path d="M5950 16685 l0 -705 475 0 475 0 0 35 0 35 -437 2 -438 3 -3 303 -2
302 380 0 380 0 0 35 0 35 -377 2 -378 3 -3 293 -2 292 425 0 425 0 0 35 0 35
-460 0 -460 0 0 -705z"/>
        <path d="M8702 16688 l3 -703 38 -3 37 -3 0 340 0 341 485 0 485 0 2 -337 3
-338 38 -3 37 -3 0 705 0 706 -40 0 -40 0 0 -330 0 -330 -485 0 -485 0 0 330
0 330 -40 0 -40 0 2 -702z"/>
        <path d="M12390 16685 l0 -705 448 2 447 3 3 32 3 33 -413 2 -413 3 -3 668 -2
667 -35 0 -35 0 0 -705z"/>
        <path d="M13552 16688 l3 -703 38 -3 37 -3 0 705 0 706 -40 0 -40 0 2 -702z"/>
        <path d="M13890 17355 l0 -35 255 0 255 0 0 -670 0 -670 35 0 35 0 0 670 0
670 260 0 260 0 0 35 0 35 -550 0 -550 0 0 -35z"/>
        <path d="M16650 16685 l0 -705 40 0 40 0 0 340 0 340 485 0 485 0 2 -337 3
-338 38 -3 37 -3 0 705 0 706 -40 0 -40 0 0 -330 0 -330 -485 0 -485 0 0 330
0 330 -40 0 -40 0 0 -705z"/>
        <path d="M190 15481 c0 -19 66 -173 121 -284 191 -382 770 -1397 941 -1649
l39 -58 327 0 c400 0 4201 27 4870 34 l484 6 -71 -135 c-93 -177 -316 -549
-768 -1275 -203 -327 -466 -757 -583 -955 -543 -916 -992 -1634 -1098 -1756
-22 -25 -46 -68 -56 -99 -24 -74 -69 -156 -189 -340 -128 -195 -167 -272 -167
-327 0 -48 30 -105 307 -588 492 -855 912 -1531 936 -1505 3 3 27 50 55 105
120 241 409 732 1478 2511 192 320 408 684 479 810 145 254 302 497 363 562
28 31 43 56 47 85 9 52 39 107 123 220 36 49 84 130 107 180 22 51 94 180 159
287 118 194 272 452 661 1105 112 187 233 396 270 465 90 167 163 278 225 342
39 40 54 64 61 99 6 26 25 71 44 100 l34 54 3627 5 3628 5 46 57 c123 153 673
1104 1028 1779 l72 136 -37 6 c-21 4 -180 12 -353 18 -241 9 -470 9 -975 0
-891 -15 -10004 -35 -12690 -27 -2040 7 -3398 19 -3497 32 -34 5 -48 3 -48 -5z"/>
        <path d="M1825 12868 c24 -79 145 -309 313 -593 405 -685 682 -1185 682 -1231
0 -12 168 -14 1038 -14 l1037 0 44 83 c25 45 119 210 209 367 555 963 723
1272 757 1388 l6 22 -2046 0 -2046 0 6 -22z"/>
        <path d="M9638 12793 c-42 -57 -106 -165 -153 -258 -44 -88 -170 -301 -280
-475 -191 -303 -354 -571 -460 -756 -27 -49 -76 -115 -108 -148 -52 -53 -58
-63 -55 -95 l3 -36 2140 -3 c1177 -2 2668 0 3312 4 l1173 6 63 97 c268 404
960 1584 1016 1734 l11 27 -3295 0 -3295 0 -72 -97z"/>
        <path d="M8301 10460 c-31 -5 -50 -14 -60 -30 -9 -13 -31 -42 -48 -63 -18 -21
-33 -45 -33 -52 0 -18 -138 -295 -216 -433 -37 -64 -132 -227 -211 -361 -79
-134 -426 -741 -770 -1350 -344 -608 -727 -1279 -850 -1490 -312 -532 -352
-612 -339 -664 3 -13 26 -49 52 -82 48 -63 96 -149 123 -225 9 -25 59 -110
112 -190 183 -277 687 -1106 1744 -2870 451 -753 1345 -2212 1375 -2243 19
-21 192 259 430 698 89 165 209 379 265 475 135 231 315 546 459 804 152 271
2570 4490 2821 4921 596 1024 965 1685 965 1728 0 12 -279 13 -1887 9 -1396
-3 -1891 -7 -1900 -16 -30 -29 -1191 -1921 -1180 -1923 6 -2 323 -18 702 -38
792 -40 815 -42 815 -59 0 -19 -132 -276 -245 -476 -284 -505 -1230 -2105
-1244 -2105 -23 0 -164 199 -412 582 -75 116 -213 321 -306 455 -199 285 -300
441 -360 554 l-44 82 522 918 c287 505 587 1035 667 1179 439 787 749 1315
872 1485 25 36 52 85 59 110 19 65 68 158 177 337 90 147 153 267 169 321 l6
22 -1093 -1 c-601 -1 -1113 -5 -1137 -9z"/>
    </g>
</svg>
